# xmcd
#
# Track frame offsets:
# 150
# 16296
# 32233
# 50177
# 62620
# 80347
# 104543
# 122862
# 143034
# 161025
#
# Disc length: 2380 seconds
#
#
# Revision: 1
# Processed by: cddbd v1.5.2PL0 Copyright (c) Steve Scherf et al.
# Submitted via: MusiCat V1.0 No comments.
#
DISCID=89094a0a
DTITLE=Silver Cross - In All Memories
DYEAR=2007
DGENRE=Alternative
TTITLE0=Silent Witness
TTITLE1=Devil Dance
TTITLE2=Why Hell?
TTITLE3=This Rose
TTITLE4=Dark Heart Of Joy
TTITLE5=Train Of My Solution
TTITLE6=Words After Death
TTITLE7=Lost In Tears
TTITLE8=For The Child In Me
TTITLE9=Visit From Evil
EXTD=
EXTT0=
EXTT1=
EXTT2=
EXTT3=
EXTT4=
EXTT5=
EXTT6=
EXTT7=
EXTT8=
EXTT9=
PLAYORDER=
